<svg width="889.601" height="75" viewBox="0 0 889.601 75" xmlns="http://www.w3.org/2000/svg"><g id="svgGroup" stroke-linecap="round" fill-rule="evenodd" font-size="9pt" stroke="#474747" stroke-width="0.25mm" fill="#088da5" style="stroke:#474747;stroke-width:0.25mm;fill:#088da5"><path d="M 93 73.5 L 78.1 73.5 A 5.183 5.183 0 0 1 76.676 73.322 Q 75.078 72.864 74.654 71.233 A 5.304 5.304 0 0 1 74.5 69.9 L 74.5 5.1 A 5.183 5.183 0 0 1 74.679 3.676 Q 75.136 2.078 76.767 1.654 A 5.304 5.304 0 0 1 78.1 1.5 L 94.2 1.5 A 4.712 4.712 0 0 1 98.004 3.295 A 7.218 7.218 0 0 1 98.8 4.5 L 107.8 20.8 A 15.27 15.27 0 0 0 108.07 21.267 Q 108.322 21.685 108.528 21.951 A 3.248 3.248 0 0 0 108.65 22.1 Q 109 22.5 109.6 22.5 L 110.5 22.5 Q 111.1 22.5 111.45 22.1 A 3.729 3.729 0 0 0 111.659 21.836 Q 111.941 21.447 112.3 20.8 L 121.2 4.5 A 6.773 6.773 0 0 1 122.321 2.934 A 4.676 4.676 0 0 1 125.8 1.5 L 142 1.5 A 5.183 5.183 0 0 1 143.425 1.679 Q 145.023 2.136 145.447 3.767 A 5.304 5.304 0 0 1 145.6 5.1 L 145.6 69.9 A 5.183 5.183 0 0 1 145.422 71.325 Q 144.964 72.922 143.334 73.347 A 5.304 5.304 0 0 1 142 73.5 L 126.6 73.5 A 5.183 5.183 0 0 1 125.176 73.322 Q 123.578 72.864 123.154 71.233 A 5.304 5.304 0 0 1 123 69.9 L 123 34.7 L 117.1 45.6 A 6.438 6.438 0 0 1 115.642 47.479 Q 114.329 48.614 112.435 48.774 A 7.556 7.556 0 0 1 111.8 48.8 L 107.8 48.8 A 6.318 6.318 0 0 1 105.424 48.373 Q 103.875 47.75 102.866 46.218 A 7.632 7.632 0 0 1 102.5 45.6 L 96.6 34.7 L 96.6 69.9 A 5.183 5.183 0 0 1 96.422 71.325 Q 95.964 72.922 94.334 73.347 A 5.304 5.304 0 0 1 93 73.5 Z M 421.4 73.5 L 405.9 73.5 A 5.183 5.183 0 0 1 404.476 73.322 Q 402.878 72.864 402.454 71.233 A 5.304 5.304 0 0 1 402.3 69.9 L 402.3 5.1 A 5.183 5.183 0 0 1 402.479 3.676 Q 402.936 2.078 404.567 1.654 A 5.304 5.304 0 0 1 405.9 1.5 L 421.4 1.5 A 5.183 5.183 0 0 1 422.825 1.679 Q 424.423 2.136 424.847 3.767 A 5.304 5.304 0 0 1 425 5.1 L 425 28.1 L 429 28.1 L 439.3 4.8 Q 440.531 1.9 443.461 1.549 A 7.054 7.054 0 0 1 444.3 1.5 L 459.7 1.5 A 5.773 5.773 0 0 1 460.63 1.568 Q 463.098 1.973 461.902 4.796 A 7.952 7.952 0 0 1 461.9 4.8 L 451.7 28.1 A 14.832 14.832 0 0 1 455.879 28.897 A 11.674 11.674 0 0 1 460.65 32.05 A 12.407 12.407 0 0 1 463.64 38.016 A 17.896 17.896 0 0 1 464 41.7 L 464 69.9 A 5.183 5.183 0 0 1 463.822 71.325 Q 463.364 72.922 461.734 73.347 A 5.304 5.304 0 0 1 460.4 73.5 L 445 73.5 A 5.183 5.183 0 0 1 443.576 73.322 Q 441.978 72.864 441.554 71.233 A 5.304 5.304 0 0 1 441.4 69.9 L 441.4 50.4 A 5.22 5.22 0 0 0 441.249 49.081 Q 440.808 47.397 439.085 47.076 A 4.829 4.829 0 0 0 438.2 47 L 425 47 L 425 69.9 A 5.183 5.183 0 0 1 424.822 71.325 Q 424.364 72.922 422.734 73.347 A 5.304 5.304 0 0 1 421.4 73.5 Z M 323 73.5 L 307.5 73.5 A 5.183 5.183 0 0 1 306.076 73.322 Q 304.478 72.864 304.054 71.233 A 5.304 5.304 0 0 1 303.9 69.9 L 303.9 5.1 A 5.183 5.183 0 0 1 304.079 3.676 Q 304.536 2.078 306.167 1.654 A 5.304 5.304 0 0 1 307.5 1.5 L 323 1.5 A 5.183 5.183 0 0 1 324.425 1.679 Q 326.023 2.136 326.447 3.767 A 5.304 5.304 0 0 1 326.6 5.1 L 326.6 26.8 L 343.3 26.8 L 343.3 5.1 A 5.183 5.183 0 0 1 343.479 3.676 Q 343.936 2.078 345.567 1.654 A 5.304 5.304 0 0 1 346.9 1.5 L 362.4 1.5 A 5.183 5.183 0 0 1 363.825 1.679 Q 365.423 2.136 365.847 3.767 A 5.304 5.304 0 0 1 366 5.1 L 366 69.9 A 5.183 5.183 0 0 1 365.822 71.325 Q 365.364 72.922 363.734 73.347 A 5.304 5.304 0 0 1 362.4 73.5 L 346.9 73.5 A 5.183 5.183 0 0 1 345.476 73.322 Q 343.878 72.864 343.454 71.233 A 5.304 5.304 0 0 1 343.3 69.9 L 343.3 47.7 L 326.6 47.7 L 326.6 69.9 A 5.183 5.183 0 0 1 326.422 71.325 Q 325.964 72.922 324.334 73.347 A 5.304 5.304 0 0 1 323 73.5 Z M 634 73.5 L 618.5 73.5 A 5.183 5.183 0 0 1 617.076 73.322 Q 615.478 72.864 615.054 71.233 A 5.304 5.304 0 0 1 614.9 69.9 L 614.9 5.1 A 5.183 5.183 0 0 1 615.079 3.676 Q 615.536 2.078 617.167 1.654 A 5.304 5.304 0 0 1 618.5 1.5 L 634 1.5 A 5.183 5.183 0 0 1 635.425 1.679 Q 637.023 2.136 637.447 3.767 A 5.304 5.304 0 0 1 637.6 5.1 L 637.6 26.8 L 654.3 26.8 L 654.3 5.1 A 5.183 5.183 0 0 1 654.479 3.676 Q 654.936 2.078 656.567 1.654 A 5.304 5.304 0 0 1 657.9 1.5 L 673.4 1.5 A 5.183 5.183 0 0 1 674.825 1.679 Q 676.423 2.136 676.847 3.767 A 5.304 5.304 0 0 1 677 5.1 L 677 69.9 A 5.183 5.183 0 0 1 676.822 71.325 Q 676.364 72.922 674.734 73.347 A 5.304 5.304 0 0 1 673.4 73.5 L 657.9 73.5 A 5.183 5.183 0 0 1 656.476 73.322 Q 654.878 72.864 654.454 71.233 A 5.304 5.304 0 0 1 654.3 69.9 L 654.3 47.7 L 637.6 47.7 L 637.6 69.9 A 5.183 5.183 0 0 1 637.422 71.325 Q 636.964 72.922 635.334 73.347 A 5.304 5.304 0 0 1 634 73.5 Z M 583.3 73.5 L 551.7 73.5 A 5.183 5.183 0 0 1 550.276 73.322 Q 548.678 72.864 548.254 71.233 A 5.304 5.304 0 0 1 548.1 69.9 L 548.1 58.2 A 5.183 5.183 0 0 1 548.279 56.776 Q 548.736 55.178 550.367 54.754 A 5.304 5.304 0 0 1 551.7 54.6 L 578.6 54.6 A 3.147 3.147 0 0 0 579.384 54.509 A 2.071 2.071 0 0 0 580.55 53.75 A 3.149 3.149 0 0 0 581.176 52.156 A 4.083 4.083 0 0 0 581.2 51.7 Q 581.2 50.088 580.616 49.286 A 2.028 2.028 0 0 0 580.55 49.2 A 2.307 2.307 0 0 0 579.467 48.468 Q 579.103 48.345 578.662 48.305 A 4.475 4.475 0 0 0 578.6 48.3 L 563.6 46.2 A 29.221 29.221 0 0 1 558.551 44.967 Q 554.94 43.713 552.35 41.55 A 10.567 10.567 0 0 1 549.3 37.156 Q 548.606 35.368 548.314 33.122 A 27.317 27.317 0 0 1 548.1 29.6 L 548.1 19.1 Q 548.1 10.5 553.6 6 Q 558.241 2.203 565.872 1.61 A 37.799 37.799 0 0 1 568.8 1.5 L 596.8 1.5 A 5.183 5.183 0 0 1 598.225 1.679 Q 599.823 2.136 600.247 3.767 A 5.304 5.304 0 0 1 600.4 5.1 L 600.4 17 A 5.183 5.183 0 0 1 600.222 18.425 Q 599.764 20.022 598.134 20.447 A 5.304 5.304 0 0 1 596.8 20.6 L 573.5 20.6 A 3.467 3.467 0 0 0 572.383 20.765 Q 570.838 21.29 570.801 23.492 A 6.487 6.487 0 0 0 570.8 23.6 A 4.574 4.574 0 0 0 570.949 24.817 Q 571.433 26.57 573.5 26.8 L 588.4 28.8 A 31.817 31.817 0 0 1 592.672 29.725 A 23.668 23.668 0 0 1 596.6 31.25 Q 600.1 33 602.05 36.4 A 13.271 13.271 0 0 1 603.366 39.728 Q 604 42.206 604 45.4 L 604 55.9 A 20.978 20.978 0 0 1 603.35 61.277 A 14.515 14.515 0 0 1 598.5 68.95 Q 593.762 72.87 585.905 73.413 A 37.816 37.816 0 0 1 583.3 73.5 Z M 288.1 73.5 L 256.6 73.5 Q 244.24 73.5 238.231 68.689 A 15.229 15.229 0 0 1 238 68.5 A 15.743 15.743 0 0 1 233.01 60.723 Q 232.221 58.1 232.049 54.923 A 33.629 33.629 0 0 1 232 53.1 L 232 21.9 A 28.576 28.576 0 0 1 232.557 16.064 Q 233.829 9.977 238 6.5 A 18.438 18.438 0 0 1 243.695 3.357 Q 248.922 1.5 256.6 1.5 L 281.6 1.5 A 5.183 5.183 0 0 1 283.025 1.679 Q 284.623 2.136 285.047 3.767 A 5.304 5.304 0 0 1 285.2 5.1 L 285.2 17.2 A 5.183 5.183 0 0 1 285.022 18.625 Q 284.564 20.222 282.934 20.647 A 5.304 5.304 0 0 1 281.6 20.8 L 260.8 20.8 A 10.868 10.868 0 0 0 258.536 21.014 Q 255.21 21.726 254.768 24.802 A 7.02 7.02 0 0 0 254.7 25.8 L 254.7 49.7 Q 254.7 54.6 259.3 54.6 L 269 54.6 L 269 39 A 5.183 5.183 0 0 1 269.179 37.576 Q 269.636 35.978 271.267 35.554 A 5.304 5.304 0 0 1 272.6 35.4 L 288.1 35.4 A 5.183 5.183 0 0 1 289.525 35.579 Q 291.123 36.036 291.547 37.667 A 5.304 5.304 0 0 1 291.7 39 L 291.7 69.9 A 5.183 5.183 0 0 1 291.522 71.325 Q 291.064 72.922 289.434 73.347 A 5.304 5.304 0 0 1 288.1 73.5 Z M 727.3 73.5 L 711.1 73.5 A 5.183 5.183 0 0 1 709.676 73.322 Q 708.078 72.864 707.654 71.233 A 5.304 5.304 0 0 1 707.5 69.9 L 707.5 57.1 L 692.2 36.6 A 46.855 46.855 0 0 1 691.167 35.095 Q 690.677 34.35 690.286 33.68 A 22.292 22.292 0 0 1 689.85 32.9 A 10.851 10.851 0 0 1 688.82 30.01 A 12.617 12.617 0 0 1 688.7 29.35 A 21.696 21.696 0 0 1 688.53 27.874 Q 688.4 26.335 688.4 24.3 L 688.4 5.1 A 5.183 5.183 0 0 1 688.579 3.676 Q 689.036 2.078 690.667 1.654 A 5.304 5.304 0 0 1 692 1.5 L 707.4 1.5 A 5.183 5.183 0 0 1 708.825 1.679 Q 710.423 2.136 710.847 3.767 A 5.304 5.304 0 0 1 711 5.1 L 711 21.5 Q 711 22.5 711.1 23.55 A 4.249 4.249 0 0 0 711.402 24.746 A 5.941 5.941 0 0 0 711.9 25.7 L 716.5 32.9 A 5 5 0 0 0 717.06 33.683 Q 717.872 34.6 718.9 34.6 L 719.9 34.6 A 2.256 2.256 0 0 0 721.385 34.032 Q 721.721 33.75 722.023 33.329 A 5.662 5.662 0 0 0 722.3 32.9 L 726.9 25.7 Q 727.6 24.6 727.7 23.55 A 21.625 21.625 0 0 0 727.8 21.502 L 727.8 21.5 L 727.8 5.1 A 5.183 5.183 0 0 1 727.979 3.676 Q 728.436 2.078 730.067 1.654 A 5.304 5.304 0 0 1 731.4 1.5 L 746.3 1.5 A 5.183 5.183 0 0 1 747.725 1.679 Q 749.323 2.136 749.747 3.767 A 5.304 5.304 0 0 1 749.9 5.1 L 749.9 24.3 Q 749.9 26.335 749.771 27.874 A 21.696 21.696 0 0 1 749.6 29.35 A 11.52 11.52 0 0 1 748.885 31.972 A 10.267 10.267 0 0 1 748.45 32.9 A 24.19 24.19 0 0 1 747.721 34.17 Q 747.38 34.729 746.974 35.337 A 48.29 48.29 0 0 1 746.1 36.6 L 730.9 57.2 L 730.9 69.9 A 5.183 5.183 0 0 1 730.722 71.325 Q 730.264 72.922 728.634 73.347 A 5.304 5.304 0 0 1 727.3 73.5 Z M 21.9 55.9 L 21.9 69.9 A 5.183 5.183 0 0 1 21.722 71.325 Q 21.264 72.922 19.634 73.347 A 5.304 5.304 0 0 1 18.3 73.5 L 3.6 73.5 A 5.183 5.183 0 0 1 2.176 73.322 Q 0.578 72.864 0.154 71.233 A 5.304 5.304 0 0 1 0 69.9 L 0 43.5 A 23.07 23.07 0 0 1 0.182 40.703 Q 0.357 39.273 0.701 37.683 A 42.814 42.814 0 0 1 0.95 36.6 A 55.531 55.531 0 0 1 1.811 33.492 Q 2.65 30.75 3.9 27.5 L 12.6 4.8 A 4.821 4.821 0 0 1 13.766 2.855 Q 14.645 1.987 16.012 1.675 A 7.599 7.599 0 0 1 17.7 1.5 L 44.6 1.5 Q 48.356 1.5 49.515 4.56 A 6.313 6.313 0 0 1 49.6 4.8 L 58.3 27.5 A 102.517 102.517 0 0 1 59.653 31.217 Q 60.28 33.058 60.747 34.701 A 51.496 51.496 0 0 1 61.25 36.6 A 38.293 38.293 0 0 1 61.865 39.62 Q 62.106 41.129 62.174 42.473 A 20.428 20.428 0 0 1 62.2 43.5 L 62.2 69.9 A 5.183 5.183 0 0 1 62.022 71.325 Q 61.564 72.922 59.934 73.347 A 5.304 5.304 0 0 1 58.6 73.5 L 43.5 73.5 Q 40.184 73.5 39.688 70.898 A 5.328 5.328 0 0 1 39.6 69.9 L 39.6 55.9 L 21.9 55.9 Z M 497.3 55.9 L 497.3 69.9 A 5.183 5.183 0 0 1 497.122 71.325 Q 496.664 72.922 495.034 73.347 A 5.304 5.304 0 0 1 493.7 73.5 L 479 73.5 A 5.183 5.183 0 0 1 477.576 73.322 Q 475.978 72.864 475.554 71.233 A 5.304 5.304 0 0 1 475.4 69.9 L 475.4 43.5 A 23.07 23.07 0 0 1 475.582 40.703 Q 475.757 39.273 476.101 37.683 A 42.814 42.814 0 0 1 476.35 36.6 A 55.531 55.531 0 0 1 477.211 33.492 Q 478.05 30.75 479.3 27.5 L 488 4.8 A 4.821 4.821 0 0 1 489.166 2.855 Q 490.045 1.987 491.412 1.675 A 7.599 7.599 0 0 1 493.1 1.5 L 520 1.5 Q 523.756 1.5 524.915 4.56 A 6.313 6.313 0 0 1 525 4.8 L 533.7 27.5 A 102.517 102.517 0 0 1 535.053 31.217 Q 535.68 33.058 536.147 34.701 A 51.496 51.496 0 0 1 536.65 36.6 A 38.293 38.293 0 0 1 537.265 39.62 Q 537.506 41.129 537.574 42.473 A 20.428 20.428 0 0 1 537.6 43.5 L 537.6 69.9 A 5.183 5.183 0 0 1 537.422 71.325 Q 536.964 72.922 535.334 73.347 A 5.304 5.304 0 0 1 534 73.5 L 518.9 73.5 Q 515.584 73.5 515.088 70.898 A 5.328 5.328 0 0 1 515 69.9 L 515 55.9 L 497.3 55.9 Z M 779.2 55.9 L 779.2 69.9 A 5.183 5.183 0 0 1 779.022 71.325 Q 778.564 72.922 776.934 73.347 A 5.304 5.304 0 0 1 775.6 73.5 L 760.9 73.5 A 5.183 5.183 0 0 1 759.476 73.322 Q 757.878 72.864 757.454 71.233 A 5.304 5.304 0 0 1 757.3 69.9 L 757.3 43.5 A 23.07 23.07 0 0 1 757.482 40.703 Q 757.657 39.273 758.001 37.683 A 42.814 42.814 0 0 1 758.25 36.6 A 55.531 55.531 0 0 1 759.111 33.492 Q 759.95 30.75 761.2 27.5 L 769.9 4.8 A 4.821 4.821 0 0 1 771.066 2.855 Q 771.945 1.987 773.312 1.675 A 7.599 7.599 0 0 1 775 1.5 L 801.9 1.5 Q 805.656 1.5 806.815 4.56 A 6.313 6.313 0 0 1 806.9 4.8 L 815.6 27.5 A 102.517 102.517 0 0 1 816.953 31.217 Q 817.58 33.058 818.047 34.701 A 51.496 51.496 0 0 1 818.55 36.6 A 38.293 38.293 0 0 1 819.165 39.62 Q 819.406 41.129 819.474 42.473 A 20.428 20.428 0 0 1 819.5 43.5 L 819.5 69.9 A 5.183 5.183 0 0 1 819.322 71.325 Q 818.864 72.922 817.234 73.347 A 5.304 5.304 0 0 1 815.9 73.5 L 800.8 73.5 Q 797.484 73.5 796.988 70.898 A 5.328 5.328 0 0 1 796.9 69.9 L 796.9 55.9 L 779.2 55.9 Z M 850.9 73.5 L 835.4 73.5 A 5.183 5.183 0 0 1 833.976 73.322 Q 832.378 72.864 831.954 71.233 A 5.304 5.304 0 0 1 831.8 69.9 L 831.8 5.1 A 5.183 5.183 0 0 1 831.979 3.676 Q 832.436 2.078 834.067 1.654 A 5.304 5.304 0 0 1 835.4 1.5 L 866 1.5 Q 875.074 1.5 880.221 3.936 A 16.682 16.682 0 0 1 880.25 3.95 A 17.435 17.435 0 0 1 884.045 6.358 A 13.249 13.249 0 0 1 887.5 10.8 A 21.156 21.156 0 0 1 889.28 16.683 A 27.975 27.975 0 0 1 889.6 21 L 889.6 33.8 Q 889.6 39.6 887.5 44 A 13.568 13.568 0 0 1 882.906 49.318 A 18.515 18.515 0 0 1 880.25 50.85 A 21.346 21.346 0 0 1 876.039 52.295 Q 871.847 53.296 866.046 53.3 A 66.376 66.376 0 0 1 866 53.3 L 854.5 53.3 L 854.5 69.9 A 5.183 5.183 0 0 1 854.322 71.325 Q 853.864 72.922 852.234 73.347 A 5.304 5.304 0 0 1 850.9 73.5 Z M 220.4 20.5 L 220.4 54.6 Q 220.4 59.2 219.05 62.95 Q 217.7 66.7 214.3 69.4 A 17.504 17.504 0 0 1 211.101 71.388 Q 209.439 72.201 207.413 72.843 A 37.315 37.315 0 0 1 204.85 73.55 A 45.474 45.474 0 0 1 199.956 74.42 Q 197.364 74.746 194.349 74.889 A 104.738 104.738 0 0 1 189.4 75 A 100.863 100.863 0 0 1 183.334 74.829 Q 177.921 74.502 173.95 73.55 A 34.867 34.867 0 0 1 170.104 72.406 Q 166.732 71.172 164.5 69.4 A 15.601 15.601 0 0 1 161.108 65.733 A 14.01 14.01 0 0 1 159.7 62.95 A 22.068 22.068 0 0 1 158.466 57.662 A 27.574 27.574 0 0 1 158.3 54.6 L 158.3 20.5 A 26.128 26.128 0 0 1 158.74 15.61 A 21.213 21.213 0 0 1 159.7 12.15 A 14.486 14.486 0 0 1 163.682 6.392 A 17.565 17.565 0 0 1 164.5 5.7 A 17.828 17.828 0 0 1 167.7 3.704 Q 169.361 2.883 171.388 2.228 A 38.108 38.108 0 0 1 173.95 1.5 A 44.103 44.103 0 0 1 178.845 0.601 Q 183.452 0 189.4 0 A 97.51 97.51 0 0 1 195.467 0.177 Q 198.427 0.362 200.956 0.741 A 42.094 42.094 0 0 1 204.85 1.5 Q 209.225 2.585 212.215 4.297 A 16.67 16.67 0 0 1 214.3 5.7 A 15.325 15.325 0 0 1 217.581 9.225 A 13.62 13.62 0 0 1 219.05 12.15 A 22.736 22.736 0 0 1 220.237 17.404 A 28.556 28.556 0 0 1 220.4 20.5 Z M 181 24.1 L 181 51 A 4.301 4.301 0 0 0 182.319 54.179 A 5.313 5.313 0 0 0 182.5 54.35 Q 183.894 55.604 188.653 55.693 A 39.961 39.961 0 0 0 189.4 55.7 A 34.823 34.823 0 0 0 191.613 55.636 Q 194.827 55.43 196.076 54.569 A 2.404 2.404 0 0 0 196.35 54.35 A 4.373 4.373 0 0 0 197.797 51.186 A 5.395 5.395 0 0 0 197.8 51 L 197.8 24.1 A 4.498 4.498 0 0 0 197.449 22.301 A 4.286 4.286 0 0 0 196.35 20.8 Q 195.004 19.593 190.169 19.507 A 42.945 42.945 0 0 0 189.4 19.5 Q 184.45 19.5 182.778 20.592 A 2.556 2.556 0 0 0 182.5 20.8 A 4.148 4.148 0 0 0 181.01 23.792 A 5.125 5.125 0 0 0 181 24.1 Z M 27.6 22.5 L 22.9 37.7 L 38.6 37.7 L 33.9 22.5 Q 33.2 20.8 32 20.8 L 29.5 20.8 Q 28.526 20.8 27.881 21.921 A 4.917 4.917 0 0 0 27.6 22.5 Z M 503 22.5 L 498.3 37.7 L 514 37.7 L 509.3 22.5 Q 508.6 20.8 507.4 20.8 L 504.9 20.8 Q 503.926 20.8 503.281 21.921 A 4.917 4.917 0 0 0 503 22.5 Z M 784.9 22.5 L 780.2 37.7 L 795.9 37.7 L 791.2 22.5 Q 790.5 20.8 789.3 20.8 L 786.8 20.8 Q 785.826 20.8 785.181 21.921 A 4.917 4.917 0 0 0 784.9 22.5 Z M 863.3 20.2 L 854.3 20.2 L 854.3 35.3 L 863.3 35.3 Q 865.914 35.3 866.903 34.082 A 2.429 2.429 0 0 0 867.1 33.8 A 6.359 6.359 0 0 0 867.986 30.869 A 7.722 7.722 0 0 0 868 30.4 L 868 25.1 A 7.458 7.458 0 0 0 867.809 23.373 A 5.772 5.772 0 0 0 867.1 21.65 Q 866.241 20.266 863.559 20.203 A 11.066 11.066 0 0 0 863.3 20.2 Z"/></g></svg>